<svg id="svg" version="1.1" xmlns="http://www.w3.org/2000/svg" xmlns:xlink="http://www.w3.org/1999/xlink" width="400" height="400" viewBox="0, 0, 400,400"><g id="svgg"><path id="path0" d="M146.659 274.473 C 145.592 275.106,144.454 275.889,144.130 276.212 C 143.581 276.762,143.011 276.960,142.300 276.847 C 142.135 276.821,142.000 276.968,142.000 277.173 C 142.000 277.378,141.662 277.653,141.249 277.784 C 140.836 277.916,139.981 278.467,139.349 279.011 C 138.717 279.554,137.975 279.999,137.700 280.000 C 137.425 280.000,137.200 280.180,137.200 280.400 C 137.200 280.620,136.922 280.800,136.583 280.800 C 136.244 280.800,135.580 281.160,135.108 281.600 C 134.636 282.040,134.013 282.400,133.725 282.400 C 133.436 282.400,133.200 282.580,133.200 282.800 C 133.200 283.020,133.024 283.200,132.808 283.200 C 132.593 283.200,131.468 283.919,130.308 284.798 C 129.149 285.677,128.052 286.397,127.871 286.398 C 127.691 286.399,127.271 286.672,126.939 287.004 C 126.607 287.336,126.142 287.488,125.906 287.342 C 125.651 287.185,125.593 287.264,125.762 287.538 C 125.931 287.812,125.793 288.000,125.424 288.000 C 125.081 288.000,124.800 288.180,124.800 288.400 C 124.800 288.620,124.480 288.800,124.088 288.800 C 123.697 288.800,123.117 289.160,122.800 289.600 C 122.483 290.040,121.903 290.400,121.512 290.400 C 121.120 290.400,120.799 290.535,120.797 290.700 C 120.795 291.051,118.457 292.489,117.640 292.642 C 117.332 292.700,116.930 292.984,116.746 293.273 C 116.563 293.563,116.404 293.620,116.394 293.400 C 116.384 293.180,116.190 293.319,115.963 293.708 C 115.736 294.098,115.382 294.312,115.175 294.185 C 114.969 294.057,114.800 294.143,114.800 294.376 C 114.800 294.609,114.612 294.800,114.383 294.800 C 114.154 294.800,113.580 295.160,113.108 295.600 C 112.636 296.040,112.013 296.400,111.725 296.400 C 111.436 296.400,111.200 296.546,111.200 296.725 C 111.200 296.904,110.578 297.295,109.818 297.593 C 109.058 297.891,108.529 298.285,108.642 298.468 C 108.755 298.650,108.567 298.800,108.224 298.800 C 107.881 298.800,107.600 298.945,107.600 299.121 C 107.600 299.298,106.703 299.883,105.606 300.421 C 104.510 300.960,103.610 301.535,103.606 301.700 C 103.603 301.865,103.375 302.000,103.100 302.000 C 102.825 302.001,102.083 302.446,101.451 302.989 C 100.819 303.533,99.964 304.084,99.551 304.216 C 99.138 304.347,98.800 304.622,98.800 304.827 C 98.800 305.032,98.440 305.200,98.000 305.200 C 97.560 305.200,97.200 305.380,97.200 305.600 C 97.200 305.820,96.930 306.000,96.600 306.000 C 96.270 306.000,96.000 306.180,96.000 306.400 C 96.000 306.620,95.812 306.800,95.583 306.800 C 95.354 306.800,94.780 307.160,94.308 307.600 C 93.836 308.040,93.213 308.400,92.925 308.400 C 92.636 308.400,92.400 308.580,92.400 308.800 C 92.400 309.020,92.203 309.200,91.962 309.200 C 91.721 309.200,91.001 309.572,90.362 310.027 C 89.723 310.482,89.200 310.744,89.200 310.609 C 89.200 310.474,88.738 310.825,88.174 311.389 C 87.610 311.954,86.980 312.311,86.774 312.184 C 86.568 312.057,86.400 312.233,86.400 312.576 C 86.400 312.919,86.220 313.200,86.000 313.200 C 85.780 313.200,85.600 313.404,85.600 313.653 C 85.600 313.902,85.284 314.397,84.897 314.753 C 83.077 316.429,81.109 326.045,82.800 325.000 C 83.143 324.788,83.422 326.269,83.237 327.330 C 83.206 327.511,83.365 327.545,83.590 327.406 C 83.819 327.264,84.000 327.516,84.000 327.976 C 84.000 328.429,84.180 328.800,84.400 328.800 C 84.620 328.800,84.800 329.001,84.800 329.246 C 84.800 329.748,87.571 332.400,88.095 332.400 C 88.281 332.400,88.820 332.760,89.292 333.200 C 89.764 333.640,90.387 334.000,90.675 334.000 C 90.964 334.000,91.200 334.180,91.200 334.400 C 91.200 334.620,91.436 334.800,91.725 334.800 C 92.013 334.800,92.636 335.160,93.108 335.600 C 93.580 336.040,94.154 336.400,94.383 336.400 C 94.612 336.400,94.800 336.580,94.800 336.800 C 94.800 337.020,94.974 337.200,95.187 337.200 C 95.571 337.200,99.890 339.848,101.381 340.998 C 101.811 341.329,102.404 341.600,102.698 341.600 C 102.993 341.600,103.620 341.960,104.092 342.400 C 104.564 342.840,105.187 343.200,105.475 343.200 C 105.764 343.200,106.000 343.358,106.000 343.551 C 106.000 343.745,106.540 344.127,107.200 344.400 C 107.860 344.673,108.400 345.055,108.400 345.249 C 108.400 345.442,108.648 345.600,108.951 345.600 C 109.254 345.600,109.729 345.873,110.006 346.207 C 110.283 346.541,111.091 347.090,111.801 347.427 C 112.511 347.764,113.469 348.391,113.929 348.820 C 114.390 349.249,114.954 349.600,115.183 349.600 C 115.412 349.600,115.600 349.760,115.600 349.957 C 115.600 350.153,116.044 350.425,116.586 350.561 C 117.128 350.697,118.020 351.256,118.568 351.804 C 119.115 352.352,119.842 352.800,120.182 352.800 C 120.522 352.800,120.800 352.980,120.800 353.200 C 120.800 353.420,121.171 353.600,121.624 353.600 C 122.077 353.600,122.360 353.742,122.252 353.915 C 122.145 354.088,122.551 354.449,123.154 354.715 C 123.757 354.982,124.606 355.515,125.040 355.900 C 125.475 356.285,126.093 356.659,126.412 356.732 C 126.731 356.805,127.084 356.985,127.196 357.132 C 127.308 357.279,128.120 357.760,129.000 358.200 C 129.880 358.640,130.949 359.315,131.375 359.700 C 131.802 360.085,132.304 360.400,132.492 360.400 C 132.680 360.400,133.220 360.760,133.692 361.200 C 134.164 361.640,134.787 362.000,135.075 362.000 C 135.364 362.000,135.600 362.180,135.600 362.400 C 135.600 362.620,135.881 362.800,136.224 362.800 C 136.567 362.800,136.755 362.950,136.641 363.133 C 136.528 363.317,136.666 363.467,136.949 363.467 C 137.231 363.467,138.291 364.037,139.303 364.733 C 140.316 365.430,141.297 366.000,141.484 366.000 C 141.671 366.000,142.083 366.360,142.400 366.800 C 142.717 367.240,143.307 367.600,143.712 367.600 C 144.116 367.600,144.336 367.780,144.200 368.000 C 144.064 368.220,144.322 368.400,144.773 368.400 C 145.224 368.400,145.818 368.760,146.093 369.200 C 146.368 369.640,146.827 370.000,147.113 370.000 C 147.399 370.000,148.020 370.360,148.492 370.800 C 148.964 371.240,149.587 371.600,149.875 371.600 C 150.164 371.600,150.400 371.780,150.400 372.000 C 150.400 372.220,150.760 372.400,151.200 372.400 C 151.640 372.400,152.000 372.553,152.000 372.739 C 152.000 372.926,152.720 373.403,153.600 373.800 C 154.480 374.197,155.200 374.674,155.200 374.861 C 155.200 375.047,155.494 375.200,155.853 375.200 C 156.212 375.200,156.797 375.516,157.153 375.903 C 157.509 376.289,158.295 376.860,158.900 377.170 C 159.505 377.481,160.000 377.885,160.000 378.068 C 160.000 378.250,160.371 378.400,160.824 378.400 C 161.277 378.400,161.536 378.580,161.400 378.800 C 161.264 379.020,161.484 379.200,161.888 379.200 C 162.293 379.200,162.883 379.560,163.200 380.000 C 163.517 380.440,164.097 380.800,164.488 380.800 C 164.880 380.800,165.200 380.980,165.200 381.200 C 165.200 381.420,165.436 381.600,165.725 381.600 C 166.013 381.600,166.599 381.915,167.027 382.300 C 167.455 382.685,168.613 383.437,169.602 383.972 C 170.591 384.506,171.670 385.226,172.000 385.572 C 172.330 385.917,172.803 386.238,173.051 386.284 C 173.299 386.330,174.695 387.185,176.155 388.184 C 177.614 389.183,179.076 390.000,179.404 390.000 C 179.732 390.000,180.000 390.180,180.000 390.400 C 180.000 390.620,180.281 390.800,180.624 390.800 C 180.993 390.800,181.131 390.988,180.962 391.262 C 180.793 391.536,180.851 391.615,181.106 391.458 C 181.342 391.312,181.775 391.430,182.068 391.721 C 182.360 392.011,183.172 392.501,183.871 392.809 C 184.570 393.118,185.055 393.512,184.948 393.685 C 184.840 393.858,185.041 394.000,185.393 394.000 C 185.745 394.000,186.420 394.360,186.892 394.800 C 187.364 395.240,187.987 395.600,188.275 395.600 C 188.564 395.600,188.800 395.780,188.800 396.000 C 188.800 396.220,189.070 396.400,189.400 396.400 C 189.730 396.400,190.000 396.580,190.000 396.800 C 190.000 397.020,190.270 397.200,190.600 397.200 C 190.930 397.200,191.200 397.380,191.200 397.600 C 191.200 397.820,191.590 398.000,192.067 398.000 C 192.543 398.000,192.816 398.117,192.673 398.261 C 192.529 398.404,192.904 398.809,193.506 399.160 C 195.149 400.120,205.565 400.093,206.531 399.126 C 206.902 398.756,207.564 398.338,208.002 398.199 C 208.441 398.060,208.800 397.778,208.800 397.573 C 208.800 397.368,209.070 397.200,209.400 397.200 C 209.730 397.200,210.000 397.020,210.000 396.800 C 210.000 396.580,210.270 396.400,210.600 396.400 C 210.930 396.400,211.200 396.220,211.200 396.000 C 211.200 395.780,211.520 395.600,211.912 395.600 C 212.303 395.600,212.883 395.240,213.200 394.800 C 213.517 394.360,214.097 394.000,214.488 394.000 C 214.880 394.000,215.200 393.842,215.200 393.649 C 215.200 393.455,215.740 393.073,216.400 392.800 C 217.060 392.527,217.602 392.190,217.605 392.051 C 217.607 391.913,218.372 391.441,219.305 391.002 C 220.237 390.563,221.746 389.708,222.658 389.102 C 223.570 388.496,224.449 388.000,224.611 388.000 C 224.773 388.000,225.197 387.684,225.553 387.297 C 225.909 386.911,226.695 386.340,227.300 386.030 C 227.905 385.719,228.400 385.315,228.400 385.132 C 228.400 384.950,228.720 384.800,229.112 384.800 C 229.503 384.800,230.083 384.440,230.400 384.000 C 230.717 383.560,231.282 383.200,231.655 383.200 C 232.028 383.200,232.393 383.033,232.467 382.830 C 232.540 382.626,232.870 382.401,233.200 382.330 C 233.530 382.258,234.091 381.885,234.447 381.500 C 234.803 381.115,235.305 380.800,235.564 380.800 C 235.822 380.800,236.389 380.469,236.823 380.064 C 237.258 379.659,238.105 379.075,238.707 378.767 C 239.308 378.458,240.091 377.889,240.447 377.503 C 240.803 377.116,241.348 376.800,241.659 376.800 C 241.969 376.800,242.483 376.440,242.800 376.000 C 243.117 375.560,243.669 375.200,244.027 375.200 C 244.385 375.200,245.052 374.876,245.509 374.479 C 245.966 374.083,247.028 373.408,247.870 372.979 C 248.711 372.551,249.490 372.109,249.600 371.999 C 249.916 371.681,254.032 369.200,254.243 369.200 C 254.348 369.200,254.820 368.840,255.292 368.400 C 255.764 367.960,256.656 367.376,257.275 367.103 C 257.894 366.829,258.400 366.469,258.400 366.302 C 258.400 366.136,258.593 366.000,258.829 366.000 C 259.064 366.000,259.529 365.728,259.861 365.396 C 260.193 365.064,260.658 364.912,260.894 365.058 C 261.149 365.215,261.207 365.136,261.038 364.862 C 260.881 364.608,260.951 364.400,261.193 364.400 C 261.435 364.400,262.020 364.040,262.492 363.600 C 262.964 363.160,263.587 362.800,263.875 362.800 C 264.164 362.800,264.400 362.620,264.400 362.400 C 264.400 362.180,264.760 362.000,265.200 362.000 C 265.640 362.000,266.000 361.820,266.000 361.600 C 266.000 361.380,266.270 361.200,266.600 361.200 C 266.930 361.200,267.200 361.020,267.200 360.800 C 267.200 360.580,267.470 360.400,267.800 360.400 C 268.130 360.400,268.400 360.220,268.400 360.000 C 268.400 359.780,268.670 359.600,269.000 359.600 C 269.330 359.600,269.600 359.440,269.600 359.243 C 269.600 359.047,270.042 358.776,270.583 358.640 C 271.124 358.504,272.046 357.948,272.633 357.404 C 273.220 356.860,273.825 356.492,273.977 356.586 C 274.130 356.680,274.507 356.407,274.815 355.979 C 275.124 355.550,275.697 355.200,276.088 355.200 C 276.480 355.200,276.800 355.042,276.800 354.849 C 276.800 354.655,277.340 354.273,278.000 354.000 C 278.660 353.727,279.200 353.345,279.200 353.151 C 279.200 352.958,279.560 352.800,280.000 352.800 C 280.440 352.800,280.800 352.650,280.800 352.468 C 280.800 352.285,281.295 351.880,281.900 351.568 C 282.505 351.255,283.349 350.685,283.775 350.300 C 284.202 349.915,284.787 349.600,285.075 349.600 C 285.364 349.600,285.600 349.420,285.600 349.200 C 285.600 348.980,285.971 348.800,286.424 348.800 C 286.877 348.800,287.148 348.640,287.027 348.444 C 286.906 348.248,287.411 347.801,288.148 347.451 C 288.886 347.101,289.717 346.541,289.994 346.207 C 290.271 345.873,290.746 345.600,291.049 345.600 C 291.352 345.600,291.600 345.420,291.600 345.200 C 291.600 344.980,291.920 344.800,292.312 344.800 C 292.703 344.800,293.283 344.440,293.600 344.000 C 293.917 343.560,294.497 343.200,294.888 343.200 C 295.280 343.200,295.600 343.020,295.600 342.800 C 295.600 342.580,295.793 342.400,296.028 342.400 C 296.263 342.400,297.253 341.851,298.228 341.181 C 299.203 340.510,300.000 340.060,300.000 340.181 C 300.000 340.301,300.360 340.040,300.800 339.600 C 301.240 339.160,301.870 338.800,302.200 338.800 C 302.530 338.800,302.800 338.620,302.800 338.400 C 302.800 338.180,303.117 338.000,303.504 338.000 C 303.891 338.000,304.432 337.640,304.707 337.200 C 304.982 336.760,305.475 336.400,305.803 336.400 C 306.132 336.400,306.400 336.242,306.400 336.049 C 306.400 335.855,306.940 335.473,307.600 335.200 C 308.260 334.927,308.800 334.545,308.800 334.351 C 308.800 334.158,309.160 334.000,309.600 334.000 C 310.040 334.000,310.400 333.832,310.400 333.627 C 310.400 333.422,310.715 333.153,311.100 333.030 C 313.014 332.418,316.800 327.733,316.800 325.977 C 316.800 325.550,316.980 325.200,317.200 325.200 C 317.431 325.200,317.600 323.941,317.600 322.224 C 317.600 320.587,317.420 319.136,317.200 319.000 C 316.980 318.864,316.800 318.257,316.800 317.652 C 316.800 317.046,316.440 316.164,316.000 315.692 C 315.560 315.220,315.200 314.701,315.200 314.539 C 315.200 314.038,313.079 312.000,312.558 312.000 C 312.288 312.000,312.007 311.851,311.933 311.668 C 311.708 311.108,307.450 308.400,306.794 308.400 C 306.454 308.400,305.917 308.040,305.600 307.600 C 305.283 307.160,304.703 306.800,304.312 306.800 C 303.920 306.800,303.600 306.620,303.600 306.400 C 303.600 306.180,303.364 306.000,303.075 306.000 C 302.787 306.000,302.164 305.640,301.692 305.200 C 301.220 304.760,300.638 304.400,300.400 304.400 C 300.162 304.400,299.580 304.040,299.108 303.600 C 298.636 303.160,298.013 302.800,297.725 302.800 C 297.436 302.800,297.200 302.620,297.200 302.400 C 297.200 302.180,296.880 302.000,296.488 302.000 C 296.097 302.000,295.517 301.640,295.200 301.200 C 294.883 300.760,294.303 300.400,293.912 300.400 C 293.520 300.400,293.200 300.242,293.200 300.049 C 293.200 299.855,292.660 299.473,292.000 299.200 C 291.340 298.927,290.800 298.545,290.800 298.351 C 290.800 298.158,290.564 298.000,290.275 298.000 C 289.987 298.000,289.402 297.675,288.975 297.278 C 288.549 296.880,287.615 296.297,286.900 295.980 C 286.185 295.664,285.600 295.269,285.600 295.102 C 285.600 294.936,285.330 294.800,285.000 294.800 C 284.670 294.800,284.400 294.620,284.400 294.400 C 284.400 294.180,284.145 294.000,283.833 294.000 C 283.522 294.000,283.207 293.865,283.133 293.700 C 283.060 293.535,281.965 292.875,280.700 292.233 C 279.435 291.592,278.400 290.917,278.400 290.733 C 278.400 290.550,278.122 290.400,277.783 290.400 C 277.444 290.400,276.780 290.040,276.308 289.600 C 275.836 289.160,275.213 288.800,274.925 288.800 C 274.636 288.800,274.400 288.620,274.400 288.400 C 274.400 288.180,274.130 288.000,273.800 288.000 C 273.470 288.000,273.200 287.820,273.200 287.600 C 273.200 287.380,272.964 287.200,272.675 287.200 C 272.387 287.200,271.764 286.840,271.292 286.400 C 270.820 285.960,270.156 285.600,269.817 285.600 C 269.478 285.600,269.200 285.420,269.200 285.200 C 269.200 284.980,268.964 284.800,268.675 284.800 C 268.387 284.800,267.793 284.485,267.355 284.100 C 266.624 283.457,265.974 283.042,263.815 281.838 C 263.384 281.597,262.791 281.179,262.497 280.910 C 262.203 280.640,261.296 280.107,260.481 279.725 C 259.667 279.343,258.774 278.810,258.498 278.541 C 258.221 278.272,257.636 277.938,257.198 277.799 C 256.759 277.660,256.400 277.368,256.400 277.149 C 256.400 276.931,256.232 276.856,256.028 276.983 C 255.823 277.109,255.548 277.039,255.416 276.826 C 255.088 276.295,250.400 273.941,250.399 274.306 C 250.399 274.468,249.859 275.230,249.200 276.000 C 248.541 276.770,248.001 277.625,248.001 277.900 C 248.000 278.175,247.862 278.400,247.694 278.400 C 247.526 278.400,246.944 279.120,246.400 280.000 C 245.856 280.880,245.274 281.600,245.106 281.600 C 244.938 281.600,244.800 281.836,244.800 282.125 C 244.800 282.413,244.440 283.036,244.000 283.508 C 243.560 283.980,243.200 284.539,243.200 284.750 C 243.200 284.961,243.056 285.193,242.880 285.267 C 242.704 285.340,240.783 288.010,238.610 291.200 C 233.464 298.756,233.042 299.363,232.774 299.600 C 232.649 299.710,231.940 300.700,231.197 301.800 C 230.454 302.900,229.701 303.860,229.523 303.933 C 229.345 304.007,229.200 304.322,229.200 304.633 C 229.200 304.945,229.020 305.200,228.800 305.200 C 228.580 305.200,228.400 305.470,228.400 305.800 C 228.400 306.130,228.262 306.400,228.094 306.400 C 227.926 306.400,227.344 307.120,226.800 308.000 C 226.256 308.880,225.674 309.600,225.506 309.600 C 225.338 309.600,225.200 309.836,225.200 310.125 C 225.200 310.413,224.864 311.009,224.454 311.450 C 224.044 311.890,223.480 312.678,223.200 313.200 C 222.920 313.722,222.533 314.341,222.340 314.575 C 222.146 314.809,220.544 317.070,218.779 319.600 C 217.015 322.130,215.307 324.517,214.985 324.905 C 214.663 325.292,214.400 325.753,214.400 325.929 C 214.400 326.105,214.076 326.598,213.681 327.025 C 213.285 327.451,212.179 328.953,211.223 330.363 C 204.740 339.922,195.273 339.523,188.386 329.400 C 187.188 327.640,186.109 326.110,185.986 326.000 C 185.864 325.890,184.580 324.090,183.134 322.000 C 181.687 319.910,179.896 317.327,179.152 316.259 C 178.408 315.192,177.620 314.022,177.400 313.659 C 177.180 313.297,176.895 312.910,176.768 312.800 C 176.640 312.690,175.611 311.250,174.481 309.600 C 170.546 303.855,164.069 294.597,163.690 294.175 C 163.480 293.941,163.077 293.311,162.794 292.775 C 162.512 292.239,162.158 291.710,162.008 291.600 C 161.858 291.490,160.775 289.960,159.600 288.200 C 158.425 286.440,157.349 284.910,157.208 284.800 C 157.066 284.690,155.283 282.139,153.245 279.131 C 148.960 272.808,149.191 272.971,146.659 274.473 " stroke="none" fill="#2fb46c" fill-rule="evenodd"></path><path id="path1" d="M193.800 72.017 C 173.356 74.147,154.931 89.025,148.496 108.600 C 146.164 115.695,145.825 117.904,145.831 126.000 C 145.837 133.991,146.780 139.898,148.818 144.700 C 149.028 145.195,149.355 146.005,149.543 146.500 C 157.972 168.588,185.214 184.385,207.269 179.974 C 208.441 179.740,210.390 179.361,211.600 179.132 C 212.810 178.903,214.160 178.580,214.600 178.414 C 215.040 178.247,216.120 177.894,217.000 177.629 C 219.039 177.015,219.799 176.711,221.938 175.657 C 222.894 175.186,223.825 174.800,224.008 174.800 C 224.510 174.800,230.419 171.111,232.857 169.276 C 236.410 166.601,241.447 161.498,243.592 158.400 C 244.125 157.630,244.684 156.910,244.834 156.800 C 248.725 153.942,254.343 135.951,254.390 126.200 C 254.437 116.339,250.311 102.611,245.322 96.030 C 245.060 95.684,244.038 94.313,243.052 92.985 C 238.378 86.687,231.588 81.123,224.000 77.371 C 220.541 75.660,219.572 75.293,212.972 73.191 C 212.296 72.976,211.288 72.800,210.731 72.800 C 210.175 72.800,209.198 72.635,208.560 72.433 C 206.978 71.933,197.242 71.658,193.800 72.017 " stroke="none" fill="#e7ebf7" fill-rule="evenodd"></path><path id="path2" d="M183.200 0.276 C 181.770 0.367,180.429 0.613,180.220 0.821 C 180.011 1.030,178.886 1.200,177.720 1.200 C 176.554 1.200,175.600 1.380,175.600 1.600 C 175.600 1.820,174.880 2.000,174.000 2.000 C 173.120 2.000,172.400 2.180,172.400 2.400 C 172.400 2.620,171.601 2.800,170.624 2.800 C 169.647 2.800,168.736 2.980,168.600 3.200 C 168.464 3.420,167.823 3.600,167.176 3.600 C 166.529 3.600,166.000 3.780,166.000 4.000 C 166.000 4.220,165.280 4.400,164.400 4.400 C 163.520 4.400,162.800 4.580,162.800 4.800 C 162.800 5.020,162.361 5.200,161.824 5.200 C 161.287 5.200,160.736 5.380,160.600 5.600 C 160.464 5.820,159.913 6.000,159.376 6.000 C 158.839 6.000,158.400 6.180,158.400 6.400 C 158.400 6.620,157.860 6.800,157.200 6.800 C 156.540 6.800,156.000 6.980,156.000 7.200 C 156.000 7.420,155.640 7.600,155.200 7.600 C 154.760 7.600,154.400 7.780,154.400 8.000 C 154.400 8.220,153.871 8.400,153.224 8.400 C 152.577 8.400,151.934 8.583,151.796 8.807 C 151.658 9.030,151.390 9.117,151.200 9.000 C 151.010 8.883,150.742 8.970,150.604 9.193 C 150.466 9.417,150.076 9.600,149.737 9.600 C 148.990 9.600,142.254 12.832,142.067 13.281 C 141.993 13.456,141.588 13.600,141.167 13.600 C 140.745 13.600,140.400 13.780,140.400 14.000 C 140.400 14.220,140.040 14.400,139.600 14.400 C 139.160 14.400,138.800 14.580,138.800 14.800 C 138.800 15.020,138.480 15.200,138.088 15.200 C 137.697 15.200,137.117 15.560,136.800 16.000 C 136.483 16.440,135.903 16.800,135.512 16.800 C 135.120 16.800,134.800 16.980,134.800 17.200 C 134.800 17.420,134.480 17.600,134.088 17.600 C 133.697 17.600,133.117 17.960,132.800 18.400 C 132.483 18.840,131.943 19.200,131.600 19.200 C 131.257 19.200,130.717 19.560,130.400 20.000 C 130.083 20.440,129.543 20.800,129.200 20.800 C 128.857 20.800,128.317 21.160,128.000 21.600 C 127.683 22.040,127.221 22.400,126.974 22.400 C 126.726 22.400,126.198 22.760,125.800 23.200 C 125.402 23.640,124.912 24.000,124.711 24.000 C 124.511 24.000,123.684 24.628,122.873 25.397 C 122.063 26.165,121.197 26.795,120.948 26.797 C 120.700 26.798,119.800 27.476,118.948 28.302 C 118.097 29.128,116.770 30.251,116.000 30.798 C 115.230 31.345,113.210 33.235,111.512 34.997 C 109.813 36.758,107.338 39.322,106.012 40.693 C 104.685 42.064,103.600 43.294,103.600 43.425 C 103.600 43.556,102.880 44.354,102.000 45.200 C 101.120 46.046,100.400 46.931,100.400 47.168 C 100.400 47.405,99.680 48.341,98.800 49.248 C 97.920 50.155,97.200 51.105,97.200 51.360 C 97.200 51.615,96.850 52.076,96.421 52.385 C 95.993 52.693,95.727 53.081,95.829 53.247 C 95.931 53.413,95.562 54.002,95.008 54.556 C 94.453 55.110,94.000 55.814,94.000 56.120 C 94.000 56.426,93.667 56.977,93.261 57.345 C 92.855 57.713,92.180 58.728,91.761 59.602 C 91.342 60.476,90.865 61.193,90.700 61.195 C 90.535 61.198,90.400 61.560,90.400 62.000 C 90.400 62.440,90.220 62.800,90.000 62.800 C 89.780 62.800,89.600 63.070,89.600 63.400 C 89.600 63.730,89.420 64.000,89.200 64.000 C 88.980 64.000,88.800 64.270,88.800 64.600 C 88.800 64.930,88.620 65.200,88.400 65.200 C 88.180 65.200,88.000 65.560,88.000 66.000 C 88.000 66.440,87.820 66.800,87.600 66.800 C 87.380 66.800,87.200 67.160,87.200 67.600 C 87.200 68.040,87.020 68.400,86.800 68.400 C 86.580 68.400,86.400 68.760,86.400 69.200 C 86.400 69.640,86.220 70.000,86.000 70.000 C 85.780 70.000,85.600 70.360,85.600 70.800 C 85.600 71.240,85.420 71.600,85.200 71.600 C 84.980 71.600,84.800 71.949,84.800 72.376 C 84.800 72.803,84.620 73.264,84.400 73.400 C 84.180 73.536,84.000 74.087,84.000 74.624 C 84.000 75.161,83.865 75.601,83.700 75.603 C 83.294 75.607,82.400 77.586,82.400 78.480 C 82.400 78.876,82.220 79.200,82.000 79.200 C 81.780 79.200,81.600 79.549,81.600 79.976 C 81.600 80.403,81.420 80.864,81.200 81.000 C 80.980 81.136,80.800 81.687,80.800 82.224 C 80.800 82.761,80.620 83.200,80.400 83.200 C 80.180 83.200,80.000 83.740,80.000 84.400 C 80.000 85.060,79.840 85.600,79.644 85.600 C 79.307 85.600,79.190 86.049,78.568 89.700 C 78.427 90.525,78.152 91.200,77.956 91.200 C 77.760 91.200,77.600 91.794,77.600 92.520 C 77.600 93.246,77.438 94.011,77.241 94.220 C 77.044 94.429,76.789 95.320,76.675 96.200 C 76.321 98.949,75.989 100.941,75.611 102.600 C 75.410 103.480,75.229 104.830,75.209 105.600 C 75.028 112.734,74.690 117.600,74.378 117.600 C 74.163 117.600,74.000 119.581,74.000 122.200 C 74.000 125.000,74.157 126.800,74.400 126.800 C 74.645 126.800,74.800 128.725,74.800 131.776 C 74.800 134.985,74.957 136.850,75.243 137.027 C 75.520 137.197,75.591 137.893,75.434 138.875 C 75.296 139.741,75.357 141.114,75.570 141.925 C 75.783 142.736,76.055 144.120,76.173 145.000 C 76.466 147.175,77.056 150.229,77.604 152.400 C 77.854 153.390,78.155 154.787,78.273 155.504 C 78.392 156.221,78.649 156.906,78.844 157.027 C 79.040 157.148,79.200 157.777,79.200 158.424 C 79.200 159.071,79.380 159.600,79.600 159.600 C 79.820 159.600,80.000 160.129,80.000 160.776 C 80.000 161.423,80.180 162.064,80.400 162.200 C 80.620 162.336,80.800 162.966,80.800 163.600 C 80.800 164.234,80.980 164.864,81.200 165.000 C 81.420 165.136,81.600 165.676,81.600 166.200 C 81.600 166.724,81.780 167.264,82.000 167.400 C 82.220 167.536,82.400 167.997,82.400 168.424 C 82.400 168.851,82.580 169.200,82.800 169.200 C 83.020 169.200,83.200 169.740,83.200 170.400 C 83.200 171.060,83.380 171.600,83.600 171.600 C 83.820 171.600,84.000 172.050,84.000 172.600 C 84.000 173.150,84.180 173.600,84.400 173.600 C 84.620 173.600,84.800 173.960,84.800 174.400 C 84.800 174.840,84.980 175.200,85.200 175.200 C 85.420 175.200,85.600 175.740,85.600 176.400 C 85.600 177.060,85.780 177.600,86.000 177.600 C 86.220 177.600,86.400 177.960,86.400 178.400 C 86.400 178.840,86.580 179.200,86.800 179.200 C 87.020 179.200,87.200 179.560,87.200 180.000 C 87.200 180.440,87.380 180.800,87.600 180.800 C 87.820 180.800,88.000 181.160,88.000 181.600 C 88.000 182.040,88.180 182.400,88.400 182.400 C 88.620 182.400,88.800 182.760,88.800 183.200 C 88.800 183.640,88.980 184.000,89.200 184.000 C 89.420 184.000,89.600 184.349,89.600 184.776 C 89.600 185.203,89.780 185.664,90.000 185.800 C 90.220 185.936,90.400 186.397,90.400 186.824 C 90.400 187.251,90.580 187.600,90.800 187.600 C 91.020 187.600,91.200 187.960,91.200 188.400 C 91.200 188.840,91.359 189.200,91.553 189.200 C 91.897 189.200,92.530 190.696,92.443 191.300 C 92.419 191.465,92.580 191.600,92.800 191.600 C 93.020 191.600,93.200 191.960,93.200 192.400 C 93.200 192.840,93.380 193.200,93.600 193.200 C 93.820 193.200,94.000 193.560,94.000 194.000 C 94.000 194.440,94.180 194.800,94.400 194.800 C 94.620 194.800,94.800 195.160,94.800 195.600 C 94.800 196.040,94.980 196.400,95.200 196.400 C 95.420 196.400,95.600 196.636,95.600 196.925 C 95.600 197.213,95.960 197.836,96.400 198.308 C 96.840 198.780,97.200 199.444,97.200 199.783 C 97.200 200.122,97.380 200.400,97.600 200.400 C 97.820 200.400,98.000 200.720,98.000 201.112 C 98.000 201.503,98.360 202.083,98.800 202.400 C 99.240 202.717,99.600 203.297,99.600 203.688 C 99.600 204.080,99.780 204.400,100.000 204.400 C 100.220 204.400,100.400 204.636,100.400 204.925 C 100.400 205.213,100.760 205.836,101.200 206.308 C 101.640 206.780,102.000 207.326,102.000 207.521 C 102.000 207.716,102.360 208.202,102.800 208.600 C 103.240 208.998,103.600 209.566,103.600 209.862 C 103.600 210.158,103.780 210.400,104.000 210.400 C 104.220 210.400,104.400 210.636,104.400 210.925 C 104.400 211.213,104.760 211.836,105.200 212.308 C 105.640 212.780,106.000 213.404,106.000 213.695 C 106.000 213.986,106.360 214.483,106.800 214.800 C 107.240 215.117,107.600 215.631,107.600 215.941 C 107.600 216.252,107.988 216.842,108.461 217.253 C 108.935 217.664,109.198 218.000,109.046 218.000 C 108.710 218.000,112.011 222.946,112.472 223.133 C 112.653 223.207,112.800 223.482,112.800 223.745 C 112.800 224.008,113.160 224.483,113.600 224.800 C 114.040 225.117,114.400 225.609,114.400 225.892 C 114.400 226.175,114.940 226.972,115.600 227.663 C 116.260 228.354,116.800 229.122,116.800 229.371 C 116.800 229.620,117.160 230.083,117.600 230.400 C 118.040 230.717,118.400 231.225,118.400 231.528 C 118.400 231.831,118.940 232.583,119.600 233.200 C 120.260 233.817,120.800 234.569,120.800 234.872 C 120.800 235.175,121.160 235.683,121.600 236.000 C 122.040 236.317,122.400 236.807,122.400 237.088 C 122.400 237.370,122.580 237.600,122.800 237.600 C 123.020 237.600,123.200 237.830,123.200 238.112 C 123.200 238.393,123.560 238.883,124.000 239.200 C 124.440 239.517,124.800 239.924,124.800 240.105 C 124.800 240.286,124.983 240.651,125.207 240.917 C 126.753 242.749,127.200 243.361,127.200 243.643 C 127.200 243.819,127.650 244.414,128.200 244.964 C 128.750 245.514,129.200 246.153,129.200 246.385 C 129.200 246.617,129.740 247.372,130.400 248.063 C 131.060 248.754,131.600 249.522,131.600 249.771 C 131.600 250.020,131.960 250.483,132.400 250.800 C 132.840 251.117,133.200 251.580,133.200 251.829 C 133.200 252.078,133.740 252.846,134.400 253.537 C 135.060 254.228,135.600 254.948,135.600 255.137 C 135.600 255.326,136.140 256.046,136.800 256.737 C 137.460 257.428,138.000 258.135,138.000 258.308 C 138.000 258.481,138.360 258.883,138.800 259.200 C 139.240 259.517,139.600 260.009,139.600 260.292 C 139.600 260.575,140.140 261.372,140.800 262.063 C 141.460 262.754,142.000 263.564,142.000 263.863 C 142.000 264.163,142.360 264.716,142.800 265.093 C 143.240 265.470,143.600 265.980,143.600 266.227 C 143.600 266.474,144.050 267.199,144.600 267.838 C 145.149 268.477,145.599 269.159,145.600 269.353 C 145.600 269.547,145.916 269.997,146.303 270.353 C 146.689 270.709,147.255 271.485,147.559 272.079 C 147.896 272.736,148.505 273.205,149.116 273.279 C 150.161 273.405,150.925 274.376,156.857 283.127 C 158.395 285.397,159.904 287.557,160.209 287.927 C 160.514 288.297,162.696 291.390,165.057 294.800 C 167.419 298.210,170.659 302.890,172.258 305.200 C 173.857 307.510,175.432 309.760,175.758 310.200 C 176.084 310.640,178.979 314.780,182.193 319.400 C 185.406 324.020,188.283 328.101,188.587 328.468 C 188.890 328.836,189.357 329.546,189.624 330.046 C 191.944 334.379,198.024 337.258,202.637 336.207 C 206.494 335.328,208.239 333.738,213.000 326.768 C 214.320 324.836,217.560 320.175,220.200 316.412 C 225.634 308.665,227.318 306.249,237.390 291.751 C 241.345 286.058,244.771 281.201,245.004 280.958 C 245.237 280.714,246.321 279.140,247.414 277.460 C 248.506 275.779,249.760 274.287,250.200 274.145 C 251.018 273.880,252.799 272.055,252.800 271.482 C 252.800 271.307,253.250 270.714,253.800 270.164 C 254.350 269.614,254.800 269.020,254.800 268.844 C 254.800 268.668,255.250 268.001,255.800 267.362 C 256.349 266.723,256.799 265.975,256.800 265.700 C 256.800 265.425,256.952 265.200,257.137 265.200 C 257.322 265.200,257.817 264.525,258.237 263.700 C 258.657 262.875,259.315 261.909,259.700 261.553 C 260.085 261.197,260.400 260.652,260.400 260.341 C 260.400 260.031,260.760 259.517,261.200 259.200 C 261.640 258.883,262.000 258.481,262.000 258.308 C 262.000 258.135,262.540 257.428,263.200 256.737 C 263.860 256.046,264.400 255.326,264.400 255.137 C 264.400 254.948,264.940 254.228,265.600 253.537 C 266.260 252.846,266.800 252.078,266.800 251.829 C 266.800 251.580,267.160 251.117,267.600 250.800 C 268.040 250.483,268.400 250.020,268.400 249.771 C 268.400 249.522,268.940 248.754,269.600 248.063 C 270.260 247.372,270.800 246.624,270.800 246.400 C 270.800 246.176,271.340 245.428,272.000 244.737 C 272.660 244.046,273.200 243.320,273.200 243.122 C 273.200 242.925,273.650 242.314,274.200 241.764 C 274.750 241.214,275.200 240.590,275.200 240.378 C 275.200 240.166,275.740 239.428,276.400 238.737 C 277.060 238.046,277.600 237.278,277.600 237.029 C 277.600 236.780,277.960 236.317,278.400 236.000 C 278.840 235.683,279.200 235.175,279.200 234.872 C 279.200 234.569,279.740 233.817,280.400 233.200 C 281.060 232.583,281.600 231.873,281.600 231.621 C 281.600 231.370,282.050 230.714,282.600 230.164 C 283.150 229.614,283.600 229.000,283.600 228.800 C 283.600 228.600,284.050 227.986,284.600 227.436 C 285.150 226.886,285.600 226.201,285.600 225.914 C 285.600 225.627,285.960 225.168,286.400 224.893 C 286.840 224.618,287.200 224.140,287.200 223.830 C 287.200 223.520,287.348 223.207,287.530 223.133 C 287.711 223.060,288.700 221.740,289.728 220.200 C 290.755 218.660,291.777 217.183,291.998 216.917 C 292.219 216.651,292.400 216.196,292.400 215.905 C 292.400 215.614,292.760 215.117,293.200 214.800 C 293.640 214.483,294.000 213.903,294.000 213.512 C 294.000 213.120,294.150 212.800,294.332 212.800 C 294.515 212.800,294.920 212.308,295.232 211.706 C 295.796 210.620,296.539 209.597,297.500 208.584 C 297.775 208.294,298.000 207.857,298.000 207.612 C 298.000 207.367,298.360 206.780,298.800 206.308 C 299.240 205.836,299.600 205.213,299.600 204.925 C 299.600 204.636,299.780 204.400,300.000 204.400 C 300.220 204.400,300.400 204.164,300.400 203.875 C 300.400 203.587,300.760 202.964,301.200 202.492 C 301.640 202.020,302.000 201.356,302.000 201.017 C 302.000 200.678,302.180 200.400,302.400 200.400 C 302.620 200.400,302.800 200.080,302.800 199.688 C 302.800 199.297,303.160 198.717,303.600 198.400 C 304.040 198.083,304.400 197.503,304.400 197.112 C 304.400 196.720,304.580 196.400,304.800 196.400 C 305.020 196.400,305.200 196.040,305.200 195.600 C 305.200 195.160,305.380 194.800,305.600 194.800 C 305.820 194.800,306.000 194.440,306.000 194.000 C 306.000 193.560,306.180 193.200,306.400 193.200 C 306.620 193.200,306.800 192.840,306.800 192.400 C 306.800 191.960,306.947 191.600,307.126 191.600 C 307.524 191.600,308.800 188.999,308.800 188.186 C 308.800 187.864,308.935 187.599,309.100 187.597 C 309.459 187.593,310.400 185.656,310.400 184.920 C 310.400 184.634,310.580 184.400,310.800 184.400 C 311.020 184.400,311.200 183.950,311.200 183.400 C 311.200 182.850,311.380 182.400,311.600 182.400 C 311.820 182.400,312.000 182.040,312.000 181.600 C 312.000 181.160,312.180 180.800,312.400 180.800 C 312.620 180.800,312.800 180.440,312.800 180.000 C 312.800 179.560,312.980 179.200,313.200 179.200 C 313.420 179.200,313.600 178.840,313.600 178.400 C 313.600 177.960,313.780 177.600,314.000 177.600 C 314.220 177.600,314.400 177.060,314.400 176.400 C 314.400 175.740,314.580 175.200,314.800 175.200 C 315.020 175.200,315.200 174.840,315.200 174.400 C 315.200 173.960,315.380 173.600,315.600 173.600 C 315.820 173.600,316.000 173.150,316.000 172.600 C 316.000 172.050,316.180 171.600,316.400 171.600 C 316.620 171.600,316.800 171.161,316.800 170.624 C 316.800 170.087,316.980 169.536,317.200 169.400 C 317.420 169.264,317.600 168.803,317.600 168.376 C 317.600 167.949,317.780 167.600,318.000 167.600 C 318.220 167.600,318.400 167.060,318.400 166.400 C 318.400 165.740,318.580 165.200,318.800 165.200 C 319.020 165.200,319.200 164.671,319.200 164.024 C 319.200 163.377,319.380 162.736,319.600 162.600 C 319.820 162.464,320.000 161.733,320.000 160.976 C 320.000 160.219,320.180 159.600,320.400 159.600 C 320.620 159.600,320.800 159.060,320.800 158.400 C 320.800 157.740,320.980 157.200,321.200 157.200 C 321.420 157.200,321.600 156.581,321.600 155.824 C 321.600 155.067,321.761 154.348,321.958 154.226 C 322.155 154.105,322.415 153.329,322.537 152.503 C 322.659 151.676,322.960 150.010,323.206 148.800 C 323.452 147.590,323.749 145.700,323.867 144.600 C 323.986 143.500,324.254 142.390,324.463 142.132 C 324.673 141.875,324.952 138.140,325.084 133.832 C 325.217 129.525,325.477 126.000,325.662 126.000 C 326.103 126.000,326.104 118.111,325.664 117.839 C 325.479 117.725,325.210 114.260,325.067 110.139 C 324.923 106.016,324.625 102.465,324.403 102.243 C 324.181 102.021,324.000 100.987,324.000 99.944 C 324.000 98.901,323.820 97.936,323.600 97.800 C 323.380 97.664,323.200 96.854,323.200 96.000 C 323.200 95.146,323.020 94.336,322.800 94.200 C 322.580 94.064,322.400 93.434,322.400 92.800 C 322.400 92.166,322.220 91.536,322.000 91.400 C 321.780 91.264,321.600 90.544,321.600 89.800 C 321.600 89.056,321.420 88.336,321.200 88.200 C 320.980 88.064,320.800 87.423,320.800 86.776 C 320.800 86.129,320.620 85.600,320.400 85.600 C 320.180 85.600,320.000 85.060,320.000 84.400 C 320.000 83.740,319.820 83.200,319.600 83.200 C 319.380 83.200,319.200 82.660,319.200 82.000 C 319.200 81.340,319.020 80.800,318.800 80.800 C 318.580 80.800,318.400 80.528,318.400 80.195 C 318.400 79.862,318.240 79.277,318.044 78.895 C 317.848 78.513,317.288 77.300,316.800 76.200 C 316.312 75.100,315.752 73.887,315.556 73.505 C 315.360 73.123,315.200 72.538,315.200 72.205 C 315.200 71.872,315.020 71.600,314.800 71.600 C 314.580 71.600,314.400 71.240,314.400 70.800 C 314.400 70.360,314.220 70.000,314.000 70.000 C 313.780 70.000,313.600 69.640,313.600 69.200 C 313.600 68.760,313.420 68.400,313.200 68.400 C 312.980 68.400,312.800 68.040,312.800 67.600 C 312.800 67.160,312.620 66.800,312.400 66.800 C 312.180 66.800,312.000 66.440,312.000 66.000 C 312.000 65.560,311.820 65.200,311.600 65.200 C 311.380 65.200,311.200 64.964,311.200 64.675 C 311.200 64.387,310.840 63.764,310.400 63.292 C 309.960 62.820,309.600 62.171,309.600 61.850 C 309.600 61.529,309.465 61.207,309.300 61.133 C 309.135 61.060,308.640 60.280,308.200 59.400 C 307.760 58.520,307.085 57.451,306.700 57.025 C 306.315 56.598,306.000 56.053,306.000 55.813 C 306.000 55.573,305.640 55.117,305.200 54.800 C 304.760 54.483,304.400 53.943,304.400 53.600 C 304.400 53.257,304.040 52.717,303.600 52.400 C 303.160 52.083,302.800 51.575,302.800 51.272 C 302.800 50.969,302.260 50.217,301.600 49.600 C 300.940 48.983,300.400 48.299,300.400 48.080 C 300.400 47.861,299.500 46.762,298.400 45.639 C 297.300 44.515,296.400 43.504,296.400 43.391 C 296.400 42.903,283.650 30.000,283.167 30.000 C 282.954 30.000,281.969 29.190,280.979 28.200 C 279.989 27.210,279.031 26.400,278.851 26.400 C 278.562 26.400,277.954 25.957,276.117 24.407 C 275.851 24.183,275.486 24.000,275.305 24.000 C 275.124 24.000,274.717 23.640,274.400 23.200 C 274.083 22.760,273.569 22.400,273.259 22.400 C 272.948 22.400,272.403 22.084,272.047 21.697 C 271.691 21.311,270.905 20.740,270.300 20.430 C 269.695 20.119,269.200 19.715,269.200 19.532 C 269.200 19.350,268.880 19.200,268.488 19.200 C 268.097 19.200,267.517 18.840,267.200 18.400 C 266.883 17.960,266.303 17.600,265.912 17.600 C 265.520 17.600,265.200 17.420,265.200 17.200 C 265.200 16.980,264.880 16.800,264.488 16.800 C 264.097 16.800,263.517 16.440,263.200 16.000 C 262.883 15.560,262.303 15.200,261.912 15.200 C 261.520 15.200,261.200 15.020,261.200 14.800 C 261.200 14.580,260.855 14.400,260.433 14.400 C 260.012 14.400,259.607 14.257,259.533 14.082 C 259.460 13.907,257.420 12.816,255.000 11.659 C 252.580 10.502,250.307 9.397,249.949 9.205 C 249.591 9.012,248.644 8.732,247.845 8.582 C 247.045 8.432,246.293 8.150,246.172 7.955 C 246.051 7.760,245.513 7.600,244.976 7.600 C 244.439 7.600,244.000 7.420,244.000 7.200 C 244.000 6.980,243.460 6.800,242.800 6.800 C 242.140 6.800,241.600 6.620,241.600 6.400 C 241.600 6.180,241.150 6.000,240.600 6.000 C 240.050 6.000,239.600 5.820,239.600 5.600 C 239.600 5.380,239.060 5.200,238.400 5.200 C 237.740 5.200,237.200 5.020,237.200 4.800 C 237.200 4.580,236.570 4.400,235.800 4.400 C 235.030 4.400,234.400 4.220,234.400 4.000 C 234.400 3.780,233.770 3.600,233.000 3.600 C 232.230 3.600,231.600 3.420,231.600 3.200 C 231.600 2.980,230.880 2.800,230.000 2.800 C 229.120 2.800,228.400 2.620,228.400 2.400 C 228.400 2.180,227.500 2.000,226.400 2.000 C 225.300 2.000,224.400 1.820,224.400 1.600 C 224.400 1.380,223.446 1.200,222.280 1.200 C 221.114 1.200,219.937 0.977,219.664 0.704 C 219.172 0.212,189.625 -0.135,183.200 0.276 M204.779 71.629 C 226.087 74.298,243.849 87.292,250.397 105.000 C 250.560 105.440,250.885 106.250,251.120 106.800 C 251.355 107.350,251.764 108.520,252.029 109.400 C 252.294 110.280,252.654 111.360,252.828 111.800 C 253.151 112.615,253.279 113.259,254.097 118.200 C 254.923 123.194,254.637 133.179,253.547 137.400 C 253.320 138.280,252.951 139.720,252.728 140.600 C 252.505 141.480,252.160 142.513,251.961 142.895 C 251.762 143.277,251.600 143.864,251.600 144.200 C 251.600 144.536,251.434 145.123,251.230 145.505 C 251.027 145.887,249.941 148.076,248.816 150.369 C 237.911 172.609,212.468 184.847,188.200 179.525 C 170.965 175.746,155.260 162.319,149.221 146.200 C 148.727 144.880,148.180 143.440,148.007 143.000 C 145.075 135.564,144.515 122.626,146.743 113.800 C 148.931 105.133,151.350 99.960,156.367 93.226 C 160.393 87.821,170.628 78.800,172.735 78.800 C 172.954 78.800,173.193 78.658,173.267 78.485 C 173.485 77.971,179.353 75.269,182.600 74.188 C 188.034 72.380,192.982 71.529,199.579 71.270 C 200.558 71.231,202.898 71.393,204.779 71.629 " stroke="none" fill="#e32727" fill-rule="evenodd"></path><path id="path3" d="M199.000 71.623 C 199.880 71.805,201.680 71.944,203.000 71.931 C 205.311 71.909,205.341 71.896,203.800 71.577 C 202.920 71.395,201.120 71.256,199.800 71.269 C 197.489 71.291,197.459 71.304,199.000 71.623 M193.300 71.887 C 193.905 71.978,194.895 71.978,195.500 71.887 C 196.105 71.795,195.610 71.720,194.400 71.720 C 193.190 71.720,192.695 71.795,193.300 71.887 M208.600 72.400 C 209.040 72.589,209.760 72.744,210.200 72.744 L 211.000 72.744 210.200 72.400 C 209.760 72.211,209.040 72.056,208.600 72.056 L 207.800 72.056 208.600 72.400 M220.000 75.389 C 220.000 75.706,222.900 76.833,223.128 76.605 C 223.241 76.492,223.235 76.400,223.116 76.400 C 222.996 76.400,222.246 76.128,221.449 75.795 C 220.652 75.462,220.000 75.279,220.000 75.389 M223.600 76.983 C 223.600 77.070,224.095 77.395,224.700 77.705 C 228.254 79.527,231.460 81.627,234.800 84.318 L 237.000 86.091 235.200 84.396 C 233.486 82.781,227.922 78.800,227.380 78.800 C 227.239 78.800,226.646 78.469,226.062 78.065 C 224.964 77.305,223.600 76.706,223.600 76.983 M165.200 83.845 C 162.527 86.065,161.782 86.825,163.400 85.681 C 164.894 84.624,167.870 82.032,167.600 82.024 C 167.490 82.020,166.410 82.840,165.200 83.845 M241.755 91.319 C 242.603 92.353,243.380 93.200,243.482 93.200 C 243.755 93.200,241.221 90.060,240.677 89.724 C 240.422 89.566,240.907 90.284,241.755 91.319 M156.000 93.600 C 155.530 94.260,155.236 94.800,155.346 94.800 C 155.456 94.800,155.930 94.260,156.400 93.600 C 156.870 92.940,157.164 92.400,157.054 92.400 C 156.944 92.400,156.470 92.940,156.000 93.600 M244.496 94.995 C 244.993 95.762,245.544 96.392,245.720 96.395 C 245.897 96.398,245.560 95.770,244.973 95.000 C 243.600 93.200,243.332 93.197,244.496 94.995 M153.053 98.100 L 152.333 99.400 153.158 98.400 C 153.889 97.513,154.214 96.800,153.886 96.800 C 153.824 96.800,153.449 97.385,153.053 98.100 M246.015 97.000 C 246.017 97.220,246.386 97.850,246.836 98.400 C 247.379 99.064,247.515 99.131,247.240 98.600 C 246.566 97.295,246.012 96.572,246.015 97.000 M251.844 109.800 C 252.173 111.271,252.402 111.590,252.394 110.567 C 252.391 110.145,252.205 109.530,251.982 109.200 C 251.685 108.762,251.648 108.924,251.844 109.800 M252.663 112.880 C 253.000 114.649,253.200 114.801,253.200 113.290 C 253.200 112.607,253.023 111.938,252.806 111.804 C 252.560 111.652,252.506 112.055,252.663 112.880 M146.249 115.415 C 146.112 115.773,146.015 116.366,146.034 116.733 C 146.053 117.100,146.227 116.869,146.421 116.220 C 146.798 114.958,146.665 114.333,146.249 115.415 M253.476 116.646 C 253.740 119.355,253.932 119.733,253.962 117.600 C 253.976 116.610,253.830 115.551,253.637 115.246 C 253.421 114.905,253.359 115.442,253.476 116.646 M145.459 121.088 C 145.321 121.919,145.236 124.400,145.270 126.600 L 145.330 130.600 145.605 125.200 C 145.896 119.491,145.865 118.628,145.459 121.088 M254.200 126.000 C 254.200 129.546,254.317 132.032,254.460 131.524 C 254.603 131.016,254.720 128.530,254.720 126.000 C 254.720 123.470,254.603 120.984,254.460 120.476 C 254.317 119.968,254.200 122.454,254.200 126.000 M253.652 134.400 C 253.610 135.170,253.139 137.413,252.606 139.385 C 252.073 141.356,251.714 143.047,251.809 143.142 C 251.992 143.326,252.071 143.106,252.720 140.600 C 252.948 139.720,253.343 138.278,253.599 137.396 C 253.855 136.513,253.989 135.163,253.896 134.396 L 253.728 133.000 253.652 134.400 M146.068 135.400 C 146.062 135.840,146.211 136.560,146.400 137.000 C 146.838 138.019,146.838 136.968,146.400 135.600 C 146.143 134.796,146.077 134.757,146.068 135.400 M251.246 143.867 C 251.221 144.124,251.084 144.664,250.941 145.067 C 250.740 145.636,250.794 145.697,251.179 145.342 C 251.452 145.091,251.589 144.551,251.484 144.142 C 251.379 143.734,251.272 143.610,251.246 143.867 M246.614 153.835 C 246.241 154.404,246.027 154.961,246.139 155.072 C 246.250 155.183,246.629 154.718,246.981 154.037 C 247.759 152.533,247.544 152.415,246.614 153.835 M243.891 157.954 C 242.959 159.532,240.394 162.427,236.805 165.952 C 233.900 168.807,233.881 168.837,236.241 166.864 C 239.493 164.145,245.817 156.800,244.907 156.800 C 244.723 156.800,244.266 157.319,243.891 157.954 M156.432 159.000 C 157.481 160.528,158.800 162.059,158.785 161.731 C 158.777 161.549,158.120 160.680,157.327 159.800 C 156.533 158.920,156.130 158.560,156.432 159.000 M161.583 164.900 C 162.564 165.945,163.419 166.800,163.483 166.800 C 163.784 166.800,163.466 166.441,161.700 164.783 L 159.800 163.000 161.583 164.900 M231.800 170.043 C 230.920 170.714,228.985 171.977,227.500 172.849 C 226.015 173.722,224.800 174.525,224.800 174.635 C 224.800 175.109,232.918 169.980,233.399 169.202 C 233.776 168.591,233.540 168.716,231.800 170.043 M176.000 175.200 C 176.770 175.622,177.580 175.966,177.800 175.966 C 178.020 175.966,177.570 175.622,176.800 175.200 C 176.030 174.778,175.220 174.434,175.000 174.434 C 174.780 174.434,175.230 174.778,176.000 175.200 M222.493 175.380 C 220.900 176.260,220.948 176.506,222.579 175.829 C 223.448 175.469,224.243 175.090,224.346 174.987 C 224.726 174.608,223.371 174.894,222.493 175.380 M214.600 178.400 C 214.308 178.873,214.699 178.873,215.800 178.400 C 216.571 178.069,216.569 178.055,215.724 178.028 C 215.242 178.013,214.736 178.180,214.600 178.400 M185.200 178.782 C 185.530 179.005,186.145 179.191,186.567 179.194 C 187.590 179.202,187.271 178.973,185.800 178.644 C 184.924 178.448,184.762 178.485,185.200 178.782 M211.400 179.200 C 210.381 179.638,211.432 179.638,212.800 179.200 C 213.604 178.943,213.643 178.877,213.000 178.868 C 212.560 178.862,211.840 179.011,211.400 179.200 M189.700 179.876 C 190.085 179.976,190.715 179.976,191.100 179.876 C 191.485 179.775,191.170 179.693,190.400 179.693 C 189.630 179.693,189.315 179.775,189.700 179.876 M206.800 180.000 L 205.800 180.320 206.800 180.332 C 207.350 180.338,208.160 180.189,208.600 180.000 L 209.400 179.656 208.600 179.668 C 208.160 179.674,207.350 179.824,206.800 180.000 M195.891 180.689 C 196.601 180.777,197.861 180.779,198.691 180.692 C 199.521 180.605,198.940 180.533,197.400 180.531 C 195.860 180.529,195.181 180.600,195.891 180.689 M149.464 273.865 C 149.869 274.271,151.718 276.852,153.572 279.601 C 155.427 282.351,157.062 284.690,157.205 284.800 C 157.348 284.910,158.425 286.440,159.600 288.200 C 160.775 289.960,161.858 291.490,162.008 291.600 C 162.158 291.710,162.512 292.239,162.794 292.775 C 163.077 293.311,163.480 293.941,163.690 294.175 C 164.069 294.597,170.546 303.855,174.481 309.600 C 175.611 311.250,176.640 312.690,176.768 312.800 C 176.895 312.910,177.180 313.297,177.400 313.659 C 177.620 314.022,178.408 315.192,179.152 316.259 C 179.896 317.327,181.687 319.910,183.134 322.000 C 184.580 324.090,185.864 325.890,185.986 326.000 C 186.109 326.110,187.188 327.640,188.386 329.400 C 192.078 334.827,197.551 338.313,200.002 336.799 C 200.258 336.641,199.708 336.392,198.774 336.242 C 195.029 335.643,191.253 333.089,189.631 330.058 C 189.360 329.551,188.890 328.836,188.587 328.468 C 188.283 328.101,185.406 324.020,182.193 319.400 C 178.979 314.780,176.084 310.640,175.758 310.200 C 175.432 309.760,173.857 307.510,172.258 305.200 C 170.659 302.890,167.419 298.210,165.057 294.800 C 162.696 291.390,160.514 288.297,160.209 287.927 C 159.904 287.557,158.395 285.397,156.857 283.127 C 151.596 275.366,150.114 273.400,149.421 273.264 C 148.786 273.139,148.790 273.190,149.464 273.865 " stroke="none" fill="#afa079" fill-rule="evenodd"></path><path id="path4" d="M249.319 274.949 C 248.865 275.471,247.214 277.766,245.649 280.049 C 244.085 282.332,241.981 285.370,240.975 286.800 C 239.968 288.230,238.047 291.020,236.706 293.000 C 235.365 294.980,234.158 296.690,234.025 296.800 C 233.891 296.910,232.624 298.710,231.208 300.800 C 229.793 302.890,228.447 304.810,228.218 305.068 C 227.988 305.325,226.180 307.906,224.200 310.804 C 222.220 313.701,220.150 316.668,219.600 317.397 C 218.540 318.801,214.076 325.247,213.400 326.348 C 213.180 326.707,212.896 327.090,212.770 327.200 C 212.643 327.310,211.756 328.570,210.798 330.000 C 208.164 333.932,205.380 335.899,201.182 336.793 L 199.400 337.173 201.400 337.050 C 205.213 336.815,208.249 334.749,211.223 330.363 C 212.179 328.953,213.285 327.451,213.681 327.025 C 214.076 326.598,214.400 326.105,214.400 325.929 C 214.400 325.753,214.663 325.292,214.985 324.905 C 215.307 324.517,217.015 322.130,218.779 319.600 C 220.544 317.070,222.146 314.809,222.340 314.575 C 222.533 314.341,222.920 313.722,223.200 313.200 C 223.480 312.678,224.044 311.890,224.454 311.450 C 224.864 311.009,225.200 310.413,225.200 310.125 C 225.200 309.836,225.338 309.600,225.506 309.600 C 225.674 309.600,226.256 308.880,226.800 308.000 C 227.344 307.120,227.926 306.400,228.094 306.400 C 228.262 306.400,228.400 306.130,228.400 305.800 C 228.400 305.470,228.580 305.200,228.800 305.200 C 229.020 305.200,229.200 304.945,229.200 304.633 C 229.200 304.322,229.345 304.007,229.523 303.933 C 229.701 303.860,230.454 302.900,231.197 301.800 C 231.940 300.700,232.649 299.710,232.774 299.600 C 233.042 299.363,233.464 298.756,238.610 291.200 C 240.783 288.010,242.704 285.340,242.880 285.267 C 243.056 285.193,243.200 284.961,243.200 284.750 C 243.200 284.539,243.560 283.980,244.000 283.508 C 244.440 283.036,244.800 282.413,244.800 282.125 C 244.800 281.836,244.938 281.600,245.106 281.600 C 245.274 281.600,245.856 280.880,246.400 280.000 C 246.944 279.120,247.526 278.400,247.694 278.400 C 247.862 278.400,248.000 278.175,248.001 277.900 C 248.001 277.625,248.541 276.770,249.200 276.000 C 250.257 274.765,250.667 274.000,250.272 274.000 C 250.202 274.000,249.773 274.427,249.319 274.949 " stroke="none" fill="#34895c" fill-rule="evenodd"></path></g></svg>